<?xml version="1.0" encoding="UTF-8" standalone="no"?>
<svg
   xmlns:dc="http://purl.org/dc/elements/1.1/"
   xmlns:cc="http://creativecommons.org/ns#"
   xmlns:rdf="http://www.w3.org/1999/02/22-rdf-syntax-ns#"
   xmlns:svg="http://www.w3.org/2000/svg"
   xmlns="http://www.w3.org/2000/svg"
   viewBox="0 0 529.33331 503.21548"
   height="503.21548"
   width="529.33331"
   xml:space="preserve"
   id="svg2"
   version="1.1"><metadata
     id="metadata8"><rdf:RDF><cc:Work
         rdf:about=""><dc:format>image/svg+xml</dc:format><dc:type
           rdf:resource="http://purl.org/dc/dcmitype/StillImage" /></cc:Work></rdf:RDF></metadata><defs
     id="defs6"><clipPath
       id="clipPath14"
       clipPathUnits="userSpaceOnUse"><path
         id="path12"
         d="M 0,0 H 397 V 567 H 0 Z" /></clipPath><clipPath
       id="clipPath24"
       clipPathUnits="userSpaceOnUse"><path
         id="path22"
         d="M 0,0.1200127 H 396.96 V 567.00001 H 0 Z" /></clipPath><clipPath
       id="clipPath34"
       clipPathUnits="userSpaceOnUse"><path
         id="path32"
         d="M 0,0 H 397 V 567 H 0 Z" /></clipPath></defs><g
     clip-path="url(#clipPath14)"
     transform="matrix(1.3333333,0,0,-1.3333333,0,756)"
     id="g10"><g
       id="g16" /><g
       id="g18"><g
         clip-path="url(#clipPath24)"
         id="g20"><path
           id="path26"
           style="fill:#ffffff;fill-opacity:1;fill-rule:nonzero;stroke:none"
           d="M 0,0.1200127 H 396.96 V 567.00001 H 0 Z" /></g></g><g
       id="g28"><g
         clip-path="url(#clipPath34)"
         id="g30"><path
           id="path36"
           style="fill:#ffffff;fill-opacity:1;fill-rule:nonzero;stroke:none"
           d="M 0,0.1249754 H 396.875 V 566.99998 H 0 Z" /><g
           transform="matrix(7.874016e-5,0,0,-7.874016e-5,2.673701,520.0117)"
           id="g38"><path
             id="path40"
             style="fill:none;stroke:#7f7f7f;stroke-width:19050;stroke-linecap:butt;stroke-linejoin:miter;stroke-miterlimit:8;stroke-dasharray:none;stroke-opacity:1"
             d="M 0,0 H 936000 V 405025 H 0 Z" /></g><g
           transform="matrix(0.24,0,0,0.24,10.83657,-61.07999)"
           id="g42"><text
             id="text46"
             style="font-variant:normal;font-weight:300;font-size:37.5px;font-family:HelveticaNeue;-inkscape-font-specification:HelveticaNeue-Light;writing-mode:lr-tb;fill:#000000;fill-opacity:1;fill-rule:nonzero;stroke:none"
             transform="matrix(1,0,0,-1,0,2362)"><tspan
               id="tspan44"
               y="0"
               x="0 26.561251 45.8475 57.821251 79.169998 85.931252 106.755 123.94125 143.22749 161.46375 180.75 201.04875 207.81 227.09625 239.07001">Cardiovascular </tspan></text>
</g><g
           transform="matrix(0.24,0,0,0.24,14.02657,-72.11999)"
           id="g48"><text
             id="text52"
             style="font-variant:normal;font-weight:300;font-size:37.5px;font-family:HelveticaNeue;-inkscape-font-specification:HelveticaNeue-Light;writing-mode:lr-tb;fill:#000000;fill-opacity:1;fill-rule:nonzero;stroke:none"
             transform="matrix(1,0,0,-1,0,2362)"><tspan
               id="tspan50"
               y="0"
               x="0 19.27125 40.642502 47.42625 68.797501 88.068748 119.3025 126.08625 146.9325 153.71625 174.5625 195.40875">epidemiology</tspan></text>
</g><g
           transform="matrix(7.874016e-5,0,0,-7.874016e-5,216.0521,520.0116)"
           id="g54"><path
             id="path56"
             style="fill:none;stroke:#7f7f7f;stroke-width:19050;stroke-linecap:butt;stroke-linejoin:miter;stroke-miterlimit:8;stroke-dasharray:none;stroke-opacity:1"
             d="M 0,0 H 840306 V 405025 H 0 Z" /></g><g
           transform="matrix(0.24,0,0,0.24,227.57,-61.07999)"
           id="g58"><text
             id="text62"
             style="font-variant:normal;font-weight:300;font-size:37.5px;font-family:HelveticaNeue;-inkscape-font-specification:HelveticaNeue-Light;writing-mode:lr-tb;fill:#000000;fill-opacity:1;fill-rule:nonzero;stroke:none"
             transform="matrix(1,0,0,-1,0,2362)"><tspan
               id="tspan60"
               y="0"
               x="0 23.4375 43.762501 63.037498 75 106.2375 125.5125 144.78751">Pharmaco</tspan></text>
</g><g
           transform="matrix(0.24,0,0,0.24,267.32,-61.07999)"
           id="g64"><text
             id="text68"
             style="font-variant:normal;font-weight:300;font-size:37.5px;font-family:HelveticaNeue;-inkscape-font-specification:HelveticaNeue-Light;writing-mode:lr-tb;fill:#000000;fill-opacity:1;fill-rule:nonzero;stroke:none"
             transform="matrix(1,0,0,-1,0,2362)"><tspan
               id="tspan66"
               y="0"
               x="0">-</tspan></text>
</g><g
           transform="matrix(0.24,0,0,0.24,223.635,-72.11999)"
           id="g70"><text
             id="text74"
             style="font-variant:normal;font-weight:300;font-size:37.5px;font-family:HelveticaNeue;-inkscape-font-specification:HelveticaNeue-Light;writing-mode:lr-tb;fill:#000000;fill-opacity:1;fill-rule:nonzero;stroke:none"
             transform="matrix(1,0,0,-1,0,2362)"><tspan
               id="tspan72"
               y="0"
               x="0 19.27125 40.642502 47.42625 68.797501 88.068748 119.3025 126.08625 146.9325 153.71625 174.5625 195.40875">epidemiology</tspan></text>
</g><g
           transform="matrix(7.874016e-5,0,0,-7.874016e-5,147.4376,520.0116)"
           id="g76"><path
             id="path78"
             style="fill:none;stroke:#7f7f7f;stroke-width:19050;stroke-linecap:butt;stroke-linejoin:miter;stroke-miterlimit:8;stroke-dasharray:none;stroke-opacity:1"
             d="M 0,0 H 840306 V 405025 H 0 Z" /></g><g
           transform="matrix(0.24,0,0,0.24,157.8955,-61.07999)"
           id="g80"><text
             id="text84"
             style="font-variant:normal;font-weight:300;font-size:37.5px;font-family:HelveticaNeue;-inkscape-font-specification:HelveticaNeue-Light;writing-mode:lr-tb;fill:#000000;fill-opacity:1;fill-rule:nonzero;stroke:none"
             transform="matrix(1,0,0,-1,0,2362)"><tspan
               id="tspan82"
               y="0"
               x="0 27.60375 47.932499 67.21125 88.065002 94.856247 115.71 136.56375 143.355 162.63374 181.91251 188.70375">Oncological </tspan></text>
</g><g
           transform="matrix(0.24,0,0,0.24,155.0205,-72.11999)"
           id="g86"><text
             id="text90"
             style="font-variant:normal;font-weight:300;font-size:37.5px;font-family:HelveticaNeue;-inkscape-font-specification:HelveticaNeue-Light;writing-mode:lr-tb;fill:#000000;fill-opacity:1;fill-rule:nonzero;stroke:none"
             transform="matrix(1,0,0,-1,0,2362)"><tspan
               id="tspan88"
               y="0"
               x="0 19.27125 40.642502 47.42625 68.797501 88.068748 119.3025 126.08625 146.9325 153.71625 174.5625 195.40875">epidemiology</tspan></text>
</g><g
           transform="matrix(7.874016e-5,0,0,-7.874016e-5,78.82315,519.9684)"
           id="g92"><path
             id="path94"
             style="fill:none;stroke:#7f7f7f;stroke-width:19050;stroke-linecap:butt;stroke-linejoin:miter;stroke-miterlimit:8;stroke-dasharray:none;stroke-opacity:1"
             d="M 0,0 H 840306 V 810050 H 0 Z" /></g><g
           transform="matrix(0.24,0,0,0.24,93.40602,-71.63999)"
           id="g96"><text
             id="text100"
             style="font-variant:normal;font-weight:300;font-size:37.5px;font-family:HelveticaNeue;-inkscape-font-specification:HelveticaNeue-Light;writing-mode:lr-tb;fill:#000000;fill-opacity:1;fill-rule:nonzero;stroke:none"
             transform="matrix(1,0,0,-1,0,2362)"><tspan
               id="tspan98"
               y="0"
               x="0 8.3325005 28.665001 38.572498 57.855 77.137497 88.057503 94.815002 115.635 135.9675 154.2">Infectious </tspan></text>
</g><g
           transform="matrix(0.24,0,0,0.24,97.21602,-82.67999)"
           id="g102"><text
             id="text106"
             style="font-variant:normal;font-weight:300;font-size:37.5px;font-family:HelveticaNeue;-inkscape-font-specification:HelveticaNeue-Light;writing-mode:lr-tb;fill:#000000;fill-opacity:1;fill-rule:nonzero;stroke:none"
             transform="matrix(1,0,0,-1,0,2362)"><tspan
               id="tspan104"
               y="0"
               x="0 21.352501 28.1175 46.357498 65.610001 84.862503 103.1025 122.355">disease </tspan></text>
</g><g
           transform="matrix(0.24,0,0,0.24,86.40602,-92.51999)"
           id="g108"><text
             id="text112"
             style="font-variant:normal;font-weight:300;font-size:37.5px;font-family:HelveticaNeue;-inkscape-font-specification:HelveticaNeue-Light;writing-mode:lr-tb;fill:#000000;fill-opacity:1;fill-rule:nonzero;stroke:none"
             transform="matrix(1,0,0,-1,0,2362)"><tspan
               id="tspan110"
               y="0"
               x="0 19.27125 40.642502 47.42625 68.797501 88.068748 119.3025 126.08625 146.9325 153.71625 174.5625 195.40875">epidemiology</tspan></text>
</g><g
           transform="matrix(7.874016e-5,0,0,-7.874016e-5,284.4816,520.0117)"
           id="g114"><path
             id="path116"
             style="fill:none;stroke:#7f7f7f;stroke-width:19050;stroke-linecap:butt;stroke-linejoin:miter;stroke-miterlimit:8;stroke-dasharray:none;stroke-opacity:1"
             d="M 0,0 H 840306 V 405025 H 0 Z" /></g><g
           transform="matrix(0.24,0,0,0.24,298.4394,-61.07999)"
           id="g118"><text
             id="text122"
             style="font-variant:normal;font-weight:300;font-size:37.5px;font-family:HelveticaNeue;-inkscape-font-specification:HelveticaNeue-Light;writing-mode:lr-tb;fill:#000000;fill-opacity:1;fill-rule:nonzero;stroke:none"
             transform="matrix(1,0,0,-1,0,2362)"><tspan
               id="tspan120"
               y="0"
               x="0 22.395 41.677502 52.5975 71.879997 83.849998 90.607498 110.94 130.2225 142.1925 159.375">Veterinary </tspan></text>
</g><g
           transform="matrix(0.24,0,0,0.24,292.0644,-72.11999)"
           id="g124"><text
             id="text128"
             style="font-variant:normal;font-weight:300;font-size:37.5px;font-family:HelveticaNeue;-inkscape-font-specification:HelveticaNeue-Light;writing-mode:lr-tb;fill:#000000;fill-opacity:1;fill-rule:nonzero;stroke:none"
             transform="matrix(1,0,0,-1,0,2362)"><tspan
               id="tspan126"
               y="0"
               x="0 19.27125 40.642502 47.42625 68.797501 88.068748 119.3025 126.08625 146.9325 153.71625 174.5625 195.40875">epidemiology</tspan></text>
</g><g
           transform="matrix(7.874016e-5,0,0,-7.874016e-5,353.0961,520.0117)"
           id="g130"><path
             id="path132"
             style="fill:none;stroke:#7f7f7f;stroke-width:19050;stroke-linecap:butt;stroke-linejoin:miter;stroke-miterlimit:8;stroke-dasharray:none;stroke-opacity:1"
             d="M 0,0 H 531769 V 405025 H 0 Z" /></g><g
           transform="matrix(0.24,0,0,0.24,366.4693,-66.35999)"
           id="g134"><text
             id="text138"
             style="font-variant:normal;font-weight:300;font-size:37.5px;font-family:HelveticaNeue;-inkscape-font-specification:HelveticaNeue-Light;writing-mode:lr-tb;fill:#000000;fill-opacity:1;fill-rule:nonzero;stroke:none"
             transform="matrix(1,0,0,-1,0,2362)"><tspan
               id="tspan136"
               y="0"
               x="0 22.395 33.314999 52.5975">Etc.</tspan></text>
</g><g
           transform="matrix(7.874016e-5,0,0,-7.874016e-5,139.0009,425.926)"
           id="g140"><path
             id="path142"
             style="fill:none;stroke:#7f7f7f;stroke-width:19050;stroke-linecap:butt;stroke-linejoin:miter;stroke-miterlimit:8;stroke-dasharray:none;stroke-opacity:1"
             d="M 0,0 H 900000 V 1100109 H 0 Z" /></g><g
           transform="matrix(0.24,0,0,0.24,148.6215,-153.96)"
           id="g144"><text
             id="text148"
             style="font-variant:normal;font-weight:300;font-size:33.33332825px;font-family:HelveticaNeue;-inkscape-font-specification:HelveticaNeue-Light;writing-mode:lr-tb;fill:#000000;fill-opacity:1;fill-rule:nonzero;stroke:none"
             transform="matrix(1,0,0,-1,0,2362)"><tspan
               id="tspan146"
               y="0"
               x="0 27.603331 33.839996 51.009995 61.413326 80.149994 99.419991 105.65665 124.39332 130.62999 149.36665 168.10332 174.33998 191.50998 208.67998 214.91664">Microbiological </tspan></text>
</g><g
           transform="matrix(0.24,0,0,0.24,159.6215,-162.84)"
           id="g150"><text
             id="text154"
             style="font-variant:normal;font-weight:300;font-size:33.33332825px;font-family:HelveticaNeue;-inkscape-font-specification:HelveticaNeue-Light;writing-mode:lr-tb;fill:#000000;fill-opacity:1;fill-rule:nonzero;stroke:none"
             transform="matrix(1,0,0,-1,0,2362)"><tspan
               id="tspan152"
               y="0"
               x="0 17.186665 34.373329 52.093327 68.246658 85.433327 91.686661 97.939987 107.82665">causality</tspan></text>
</g><g
           transform="matrix(0.24,0,0,0.24,152.3715,-182.76)"
           id="g156"><text
             id="text160"
             style="font-variant:normal;font-weight:300;font-size:33.33332825px;font-family:HelveticaNeue;-inkscape-font-specification:HelveticaNeue-Light;writing-mode:lr-tb;fill:#000000;fill-opacity:1;fill-rule:nonzero;stroke:none"
             transform="matrix(1,0,0,-1,0,2362)"><tspan
               id="tspan158"
               y="0"
               x="0 20.833332 38.533329 48.433327 54.699993 82.299995 88.566658 105.76665 116.19999 134.96666 154.23332 160.49998 177.69998 183.96664">Antimicrobial </tspan></text>
</g><g
           transform="matrix(0.24,0,0,0.24,156.9965,-191.88)"
           id="g162"><text
             id="text166"
             style="font-variant:normal;font-weight:300;font-size:33.33332825px;font-family:HelveticaNeue;-inkscape-font-specification:HelveticaNeue-Light;writing-mode:lr-tb;fill:#000000;fill-opacity:1;fill-rule:nonzero;stroke:none"
             transform="matrix(1,0,0,-1,0,2362)"><tspan
               id="tspan164"
               y="0"
               x="0 10.416666 27.599997 43.749996 49.999996 66.149994 76.033325 93.21666 110.93332 128.11665">resistance</tspan></text>
</g><g
           transform="matrix(0.24,0,0,0.24,150.9965,-210.84)"
           id="g168"><text
             id="text172"
             style="font-variant:normal;font-weight:300;font-size:33.33332825px;font-family:HelveticaNeue;-inkscape-font-specification:HelveticaNeue-Light;writing-mode:lr-tb;fill:#000000;fill-opacity:1;fill-rule:nonzero;stroke:none"
             transform="matrix(1,0,0,-1,0,2362)"><tspan
               id="tspan170"
               y="0"
               x="0 7.2933326">In</tspan></text>
</g><g
           transform="matrix(0.24,0,0,0.24,156.9965,-210.84)"
           id="g174"><text
             id="text178"
             style="font-variant:normal;font-weight:300;font-size:33.33332825px;font-family:HelveticaNeue;-inkscape-font-specification:HelveticaNeue-Light;writing-mode:lr-tb;fill:#000000;fill-opacity:1;fill-rule:nonzero;stroke:none"
             transform="matrix(1,0,0,-1,0,2362)"><tspan
               id="tspan176"
               y="0"
               x="0 8.8533325 26.039997 43.226662 53.113327 59.366661 74.986656 81.23999 91.126656">fectivity</tspan></text>
</g><g
           transform="matrix(0.24,0,0,0.24,184.8715,-210.84)"
           id="g180"><text
             id="text184"
             style="font-variant:normal;font-weight:300;font-size:33.33332825px;font-family:HelveticaNeue;-inkscape-font-specification:HelveticaNeue-Light;writing-mode:lr-tb;fill:#000000;fill-opacity:1;fill-rule:nonzero;stroke:none"
             transform="matrix(1,0,0,-1,0,2362)"><tspan
               id="tspan182"
               y="0"
               x="0 17.186665 34.906662 54.193329">and </tspan></text>
</g><g
           transform="matrix(0.24,0,0,0.24,151.4315,-220.92)"
           id="g186"><text
             id="text190"
             style="font-variant:normal;font-weight:300;font-size:33.33332825px;font-family:HelveticaNeue;-inkscape-font-specification:HelveticaNeue-Light;writing-mode:lr-tb;fill:#000000;fill-opacity:1;fill-rule:nonzero;stroke:none"
             transform="matrix(1,0,0,-1,0,2362)"><tspan
               id="tspan188"
               y="0"
               x="0 19.269999 36.439995 46.34333 64.046661 82.783325 101.51999 118.68999 136.39333 142.62999 159.79999 166.03665 175.93999">pathogenicity</tspan></text>
</g><g
           transform="matrix(0.24,0,0,0.24,138.5002,-129)"
           id="g192"><text
             id="text196"
             style="font-variant:normal;font-weight:normal;font-size:29.16666985px;font-family:HelveticaNeue;-inkscape-font-specification:HelveticaNeue;writing-mode:lr-tb;fill:#000000;fill-opacity:1;fill-rule:nonzero;stroke:none"
             transform="matrix(1,0,0,-1,0,2362)"><tspan
               id="tspan194"
               y="0"
               x="0 25.520836 31.762505 47.39584 57.28334 73.937508 91.116676 97.358345 112.99168 119.23335 127.57501 143.20834 160.38751 166.62918 183.80835 199.4417 224.43753 230.6792 247.33336 253.57503 270.22919 286.88336">Microbial epidemiology</tspan></text>
</g><g
           transform="matrix(0.24,0,0,0.24,132.5602,-136.92)"
           id="g198"><text
             id="text202"
             style="font-variant:normal;font-weight:300;font-size:29.16666985px;font-family:HelveticaNeue;-inkscape-font-specification:HelveticaNeue-Light;writing-mode:lr-tb;fill:#000000;fill-opacity:1;fill-rule:nonzero;stroke:none"
             transform="matrix(1,0,0,-1,0,2362)"><tspan
               id="tspan200"
               y="0"
               x="0 8.3329172 25.007504 34.390419 50.540005 67.214592 82.314178 91.69709 100.55501 105.7671 120.86668 134.91626 143.24918 159.39877 167.20668 175.5396 184.39752 200.02211 215.12169 223.45461 240.1292 255.22878 264.0867 279.71127 295.86087 312.01047 327.11005 342.73462">‘properties of the pathogen’</tspan></text>
</g><g
           transform="matrix(7.874016e-5,0,0,-7.874016e-5,13.74811,425.9259)"
           id="g204"><path
             id="path206"
             style="fill:none;stroke:#7f7f7f;stroke-width:19050;stroke-linecap:butt;stroke-linejoin:miter;stroke-miterlimit:8;stroke-dasharray:none;stroke-opacity:1"
             d="M 0,0 H 900000 V 1098218 H 0 Z" /></g><g
           transform="matrix(0.24,0,0,0.24,38.18114,-153.72)"
           id="g208"><text
             id="text212"
             style="font-variant:normal;font-weight:300;font-size:33.33332825px;font-family:HelveticaNeue;-inkscape-font-specification:HelveticaNeue-Light;writing-mode:lr-tb;fill:#000000;fill-opacity:1;fill-rule:nonzero;stroke:none"
             transform="matrix(1,0,0,-1,0,2362)"><tspan
               id="tspan210"
               y="0"
               x="0 23.436665 40.606663 57.776661 64.013329 73.916656">Health</tspan></text>
</g><g
           transform="matrix(0.24,0,0,0.24,41.30614,-162.84)"
           id="g214"><text
             id="text218"
             style="font-variant:normal;font-weight:300;font-size:33.33332825px;font-family:HelveticaNeue;-inkscape-font-specification:HelveticaNeue-Light;writing-mode:lr-tb;fill:#000000;fill-opacity:1;fill-rule:nonzero;stroke:none"
             transform="matrix(1,0,0,-1,0,2362)"><tspan
               id="tspan216"
               y="0"
               x="0 10.416666 16.666664 32.813332 49.479996">risks</tspan></text>
</g><g
           transform="matrix(0.24,0,0,0.24,32.18114,-182.76)"
           id="g220"><text
             id="text224"
             style="font-variant:normal;font-weight:300;font-size:33.33332825px;font-family:HelveticaNeue;-inkscape-font-specification:HelveticaNeue-Light;writing-mode:lr-tb;fill:#000000;fill-opacity:1;fill-rule:nonzero;stroke:none"
             transform="matrix(1,0,0,-1,0,2362)"><tspan
               id="tspan222"
               y="0"
               x="0 22.396664 40.09333 50.523327 69.786659 86.983322 104.67999 114.04332 132.80666 141.66998">Burden of </tspan></text>
</g><g
           transform="matrix(0.24,0,0,0.24,36.05614,-191.88)"
           id="g226"><text
             id="text230"
             style="font-variant:normal;font-weight:300;font-size:33.33332825px;font-family:HelveticaNeue;-inkscape-font-specification:HelveticaNeue-Light;writing-mode:lr-tb;fill:#000000;fill-opacity:1;fill-rule:nonzero;stroke:none"
             transform="matrix(1,0,0,-1,0,2362)"><tspan
               id="tspan228"
               y="0"
               x="0 19.269999 25.506664 41.64333 58.813328 75.983322 92.119987">disease</tspan></text>
</g><g
           transform="matrix(0.24,0,0,0.24,22.43114,-210.84)"
           id="g232"><text
             id="text236"
             style="font-variant:normal;font-weight:300;font-size:33.33332825px;font-family:HelveticaNeue;-inkscape-font-specification:HelveticaNeue-Light;writing-mode:lr-tb;fill:#000000;fill-opacity:1;fill-rule:nonzero;stroke:none"
             transform="matrix(1,0,0,-1,0,2362)"><tspan
               id="tspan234"
               y="0"
               x="0 22.916664 29.166664 45.316662 62.499992 79.683327 95.833321">Disease</tspan></text>
</g><g
           transform="matrix(0.24,0,0,0.24,49.55614,-210.84)"
           id="g238"><text
             id="text242"
             style="font-variant:normal;font-weight:300;font-size:33.33332825px;font-family:HelveticaNeue;-inkscape-font-specification:HelveticaNeue-Light;writing-mode:lr-tb;fill:#000000;fill-opacity:1;fill-rule:nonzero;stroke:none"
             transform="matrix(1,0,0,-1,0,2362)"><tspan
               id="tspan240"
               y="0"
               x="0">-</tspan></text>
</g><g
           transform="matrix(0.24,0,0,0.24,52.55614,-210.84)"
           id="g244"><text
             id="text248"
             style="font-variant:normal;font-weight:300;font-size:33.33332825px;font-family:HelveticaNeue;-inkscape-font-specification:HelveticaNeue-Light;writing-mode:lr-tb;fill:#000000;fill-opacity:1;fill-rule:nonzero;stroke:none"
             transform="matrix(1,0,0,-1,0,2362)"><tspan
               id="tspan246"
               y="0"
               x="0 10.416666 27.599997 33.849998 51.033329 60.91666 78.099991 97.383324">related </tspan></text>
</g><g
           transform="matrix(0.24,0,0,0.24,39.80614,-220.68)"
           id="g250"><text
             id="text254"
             style="font-variant:normal;font-weight:300;font-size:33.33332825px;font-family:HelveticaNeue;-inkscape-font-specification:HelveticaNeue-Light;writing-mode:lr-tb;fill:#000000;fill-opacity:1;fill-rule:nonzero;stroke:none"
             transform="matrix(1,0,0,-1,0,2362)"><tspan
               id="tspan252"
               y="0"
               x="0 17.186665 35.939995 52.093327 61.979992">costs</tspan></text>
</g><g
           transform="matrix(0.24,0,0,0.24,15.63524,-128.76)"
           id="g256"><text
             id="text260"
             style="font-variant:normal;font-weight:normal;font-size:29.16666985px;font-family:HelveticaNeue;-inkscape-font-specification:HelveticaNeue;writing-mode:lr-tb;fill:#000000;fill-opacity:1;fill-rule:nonzero;stroke:none"
             transform="matrix(1,0,0,-1,0,2362)"><tspan
               id="tspan258"
               y="0"
               x="0 20.833752 27.084169 33.334587 49.472507 55.722923 71.335838 86.948761 93.199181 101.52043 117.13335 134.32126 140.57169 157.7596 173.37251 198.37711 204.62752 221.29044 227.54086 244.20378 260.8667">Clinical epidemiology</tspan></text>
</g><g
           transform="matrix(0.24,0,0,0.24,9.445236,-136.92)"
           id="g262"><text
             id="text266"
             style="font-variant:normal;font-weight:300;font-size:29.16666985px;font-family:HelveticaNeue;-inkscape-font-specification:HelveticaNeue-Light;writing-mode:lr-tb;fill:#000000;fill-opacity:1;fill-rule:nonzero;stroke:none"
             transform="matrix(1,0,0,-1,0,2362)"><tspan
               id="tspan264"
               y="0"
               x="0 8.3329172 25.007504 34.390419 50.540005 67.214592 82.314178 91.69709 100.55501 105.7671 120.86668 134.91626 143.24918 159.39877 167.20668 175.5396 184.39752 200.02211 215.12169 223.45461 240.1292 245.34128 259.39087 274.49045 289.59003 303.63962 318.7392">‘properties of the disease’</tspan></text>
</g><path
           id="path268"
           style="fill:#d9d9d9;fill-opacity:1;fill-rule:nonzero;stroke:none"
           d="m 70.80118,534.348 h 90.36432 v 29.0812 H 70.80118 Z" /><g
           transform="matrix(7.874016e-5,0,0,-7.874016e-5,70.80118,563.4292)"
           id="g270"><path
             id="path272"
             style="fill:none;stroke:#7f7f7f;stroke-width:19050;stroke-linecap:butt;stroke-linejoin:miter;stroke-miterlimit:8;stroke-dasharray:none;stroke-opacity:1"
             d="M 0,0 H 1147627 V 369332 H 0 Z" /></g><g
           transform="matrix(0.24,0,0,0.24,84.60835,-21.95999)"
           id="g274"><text
             id="text278"
             style="font-variant:normal;font-weight:500;font-size:41.66666031px;font-family:HelveticaNeue;-inkscape-font-specification:HelveticaNeue-Medium;writing-mode:lr-tb;fill:#000000;fill-opacity:1;fill-rule:nonzero;stroke:none"
             transform="matrix(1,0,0,-1,0,2362)"><tspan
               id="tspan276"
               y="0"
               x="0 26.041662 51.583324 61.499989 87.041656 109.95831 146.41664 156.33331 180.79164 190.7083 215.16663 239.62495">Epidemiology</tspan></text>
</g><g
           transform="matrix(-7.874016e-5,0,0,-7.874016e-5,70.50023,563.5)"
           id="g280"><path
             id="path282"
             style="fill:none;stroke:#7f7f7f;stroke-width:19050;stroke-linecap:butt;stroke-linejoin:miter;stroke-miterlimit:8;stroke-dasharray:none;stroke-opacity:1"
             d="M 0,0 866778,552450" /></g><g
           transform="matrix(7.874016e-5,0,0,-7.874016e-5,161.25,563.5)"
           id="g284"><path
             id="path286"
             style="fill:none;stroke:#7f7f7f;stroke-width:19050;stroke-linecap:butt;stroke-linejoin:miter;stroke-miterlimit:8;stroke-dasharray:none;stroke-opacity:1"
             d="M 0,0 2968214,552303" /></g><path
           id="path288"
           style="fill:#d9d9d9;fill-opacity:1;fill-rule:nonzero;stroke:none"
           d="m 250.6287,193.1851 h 90.3644 v 29.0813 h -90.3644 z" /><g
           transform="matrix(7.874016e-5,0,0,-7.874016e-5,250.6287,222.2664)"
           id="g290"><path
             id="path292"
             style="fill:none;stroke:#7f7f7f;stroke-width:19050;stroke-linecap:butt;stroke-linejoin:miter;stroke-miterlimit:8;stroke-dasharray:none;stroke-opacity:1"
             d="M 0,0 H 1147627 V 369332 H 0 Z" /></g><g
           transform="matrix(0.24,0,0,0.24,279.0609,-357.24)"
           id="g294"><text
             id="text298"
             style="font-variant:normal;font-weight:500;font-size:41.66666031px;font-family:HelveticaNeue;-inkscape-font-specification:HelveticaNeue-Medium;writing-mode:lr-tb;fill:#000000;fill-opacity:1;fill-rule:nonzero;stroke:none"
             transform="matrix(1,0,0,-1,0,2362)"><tspan
               id="tspan296"
               y="0"
               x="0 30.208328 40.083328 49.958324 73.916656 83.791656 106.70831 129.62498 139.49998">Clinical </tspan></text>
</g><g
           transform="matrix(0.24,0,0,0.24,265.9359,-369.24)"
           id="g300"><text
             id="text304"
             style="font-variant:normal;font-weight:500;font-size:41.66666031px;font-family:HelveticaNeue;-inkscape-font-specification:HelveticaNeue-Medium;writing-mode:lr-tb;fill:#000000;fill-opacity:1;fill-rule:nonzero;stroke:none"
             transform="matrix(1,0,0,-1,0,2362)"><tspan
               id="tspan302"
               y="0"
               x="0 36.458328 46.333324 69.249992 83.833321 108.29165 133.79164 143.66664 168.12497 177.99997 202.4583 226.91663">microbiology</tspan></text>
</g><g
           transform="matrix(7.874016e-5,0,0,-7.874016e-5,2.673701,270.2445)"
           id="g306"><path
             id="path308"
             style="fill:none;stroke:#7f7f7f;stroke-width:19050;stroke-linecap:butt;stroke-linejoin:miter;stroke-miterlimit:8;stroke-dasharray:none;stroke-opacity:1"
             d="M 0,0 H 936000 V 405025 H 0 Z" /></g><g
           transform="matrix(0.24,0,0,0.24,23.21157,-310.68)"
           id="g310"><text
             id="text314"
             style="font-variant:normal;font-weight:300;font-size:37.5px;font-family:HelveticaNeue;-inkscape-font-specification:HelveticaNeue-Light;writing-mode:lr-tb;fill:#000000;fill-opacity:1;fill-rule:nonzero;stroke:none"
             transform="matrix(1,0,0,-1,0,2362)"><tspan
               id="tspan312"
               y="0"
               x="0 8.3325005 28.665001 38.572498 57.855 77.137497 88.057503 94.815002 115.635 135.9675">Infection </tspan></text>
</g><g
           transform="matrix(0.24,0,0,0.24,19.33657,-321.72)"
           id="g316"><text
             id="text320"
             style="font-variant:normal;font-weight:300;font-size:37.5px;font-family:HelveticaNeue;-inkscape-font-specification:HelveticaNeue-Light;writing-mode:lr-tb;fill:#000000;fill-opacity:1;fill-rule:nonzero;stroke:none"
             transform="matrix(1,0,0,-1,0,2362)"><tspan
               id="tspan318"
               y="0"
               x="0 21.352501 33.330002 52.5825 69.772499 89.025002 109.3275 120.255 127.02 147.8475">prevention</tspan></text>
</g><g
           transform="matrix(7.874016e-5,0,0,-7.874016e-5,216.0521,270.2443)"
           id="g322"><path
             id="path324"
             style="fill:none;stroke:#7f7f7f;stroke-width:19050;stroke-linecap:butt;stroke-linejoin:miter;stroke-miterlimit:8;stroke-dasharray:none;stroke-opacity:1"
             d="M 0,0 H 840306 V 405025 H 0 Z" /></g><g
           transform="matrix(0.24,0,0,0.24,226.6975,-316.2)"
           id="g326"><text
             id="text330"
             style="font-variant:normal;font-weight:300;font-size:37.5px;font-family:HelveticaNeue;-inkscape-font-specification:HelveticaNeue-Light;writing-mode:lr-tb;fill:#000000;fill-opacity:1;fill-rule:nonzero;stroke:none"
             transform="matrix(1,0,0,-1,0,2362)"><tspan
               id="tspan328"
               y="0"
               x="0 25.522499 32.294998 51.555 72.389999 92.699997 113.535 131.7825 142.7175 149.49001 168.75">Diagnostics</tspan></text>
</g><g
           transform="matrix(7.874016e-5,0,0,-7.874016e-5,147.4376,270.2443)"
           id="g332"><path
             id="path334"
             style="fill:none;stroke:#7f7f7f;stroke-width:19050;stroke-linecap:butt;stroke-linejoin:miter;stroke-miterlimit:8;stroke-dasharray:none;stroke-opacity:1"
             d="M 0,0 H 840306 V 405025 H 0 Z" /></g><g
           transform="matrix(0.24,0,0,0.24,156.2705,-316.2)"
           id="g336"><text
             id="text340"
             style="font-variant:normal;font-weight:300;font-size:37.5px;font-family:HelveticaNeue;-inkscape-font-specification:HelveticaNeue-Light;writing-mode:lr-tb;fill:#000000;fill-opacity:1;fill-rule:nonzero;stroke:none"
             transform="matrix(1,0,0,-1,0,2362)"><tspan
               id="tspan338"
               y="0"
               x="0 26.561251 47.384998 67.683746 85.919998 106.21875 112.98 123.90375 143.19 154.11375 160.875 181.69875">Consultation</tspan></text>
</g><g
           transform="matrix(7.874016e-5,0,0,-7.874016e-5,78.73063,302.1361)"
           id="g342"><path
             id="path344"
             style="fill:none;stroke:#7f7f7f;stroke-width:19050;stroke-linecap:butt;stroke-linejoin:miter;stroke-miterlimit:8;stroke-dasharray:none;stroke-opacity:1"
             d="M 0,0 H 840306 V 810050 H 0 Z" /></g><g
           transform="matrix(0.24,0,0,0.24,93.3135,-289.32)"
           id="g346"><text
             id="text350"
             style="font-variant:normal;font-weight:300;font-size:37.5px;font-family:HelveticaNeue;-inkscape-font-specification:HelveticaNeue-Light;writing-mode:lr-tb;fill:#000000;fill-opacity:1;fill-rule:nonzero;stroke:none"
             transform="matrix(1,0,0,-1,0,2362)"><tspan
               id="tspan348"
               y="0"
               x="0 8.3325005 28.665001 38.572498 57.855 77.137497 88.057503 94.815002 115.635 135.9675 154.2">Infectious </tspan></text>
</g><g
           transform="matrix(0.24,0,0,0.24,97.1235,-300.36)"
           id="g352"><text
             id="text356"
             style="font-variant:normal;font-weight:300;font-size:37.5px;font-family:HelveticaNeue;-inkscape-font-specification:HelveticaNeue-Light;writing-mode:lr-tb;fill:#000000;fill-opacity:1;fill-rule:nonzero;stroke:none"
             transform="matrix(1,0,0,-1,0,2362)"><tspan
               id="tspan354"
               y="0"
               x="0 21.352501 28.1175 46.357498 65.610001 84.862503 103.1025 122.355">disease </tspan></text>
</g><g
           transform="matrix(0.24,0,0,0.24,86.3135,-310.44)"
           id="g358"><text
             id="text362"
             style="font-variant:normal;font-weight:300;font-size:37.5px;font-family:HelveticaNeue;-inkscape-font-specification:HelveticaNeue-Light;writing-mode:lr-tb;fill:#000000;fill-opacity:1;fill-rule:nonzero;stroke:none"
             transform="matrix(1,0,0,-1,0,2362)"><tspan
               id="tspan360"
               y="0"
               x="0 19.27125 40.642502 47.42625 68.797501 88.068748 119.3025 126.08625 146.9325 153.71625 174.5625 195.40875">epidemiology</tspan></text>
</g><g
           transform="matrix(7.874016e-5,0,0,-7.874016e-5,284.5741,270.2443)"
           id="g364"><path
             id="path366"
             style="fill:none;stroke:#7f7f7f;stroke-width:19050;stroke-linecap:butt;stroke-linejoin:miter;stroke-miterlimit:8;stroke-dasharray:none;stroke-opacity:1"
             d="M 0,0 H 840306 V 405025 H 0 Z" /></g><g
           transform="matrix(0.24,0,0,0.24,299.032,-310.68)"
           id="g368"><text
             id="text372"
             style="font-variant:normal;font-weight:300;font-size:37.5px;font-family:HelveticaNeue;-inkscape-font-specification:HelveticaNeue-Light;writing-mode:lr-tb;fill:#000000;fill-opacity:1;fill-rule:nonzero;stroke:none"
             transform="matrix(1,0,0,-1,0,2362)"><tspan
               id="tspan370"
               y="0"
               x="0 30.727501 51.555 58.32 77.610001 96.900002 117.2025 123.9675 143.25751 155.235">Molecular </tspan></text>
</g><g
           transform="matrix(0.24,0,0,0.24,305.967,-321.72)"
           id="g374"><text
             id="text378"
             style="font-variant:normal;font-weight:300;font-size:37.5px;font-family:HelveticaNeue;-inkscape-font-specification:HelveticaNeue-Light;writing-mode:lr-tb;fill:#000000;fill-opacity:1;fill-rule:nonzero;stroke:none"
             transform="matrix(1,0,0,-1,0,2362)"><tspan
               id="tspan376"
               y="0"
               x="0 10.93875 28.139999 49.50375 56.279999 76.59375">typing</tspan></text>
</g><g
           transform="matrix(7.874016e-5,0,0,-7.874016e-5,353.0961,270.2444)"
           id="g380"><path
             id="path382"
             style="fill:none;stroke:#7f7f7f;stroke-width:19050;stroke-linecap:butt;stroke-linejoin:miter;stroke-miterlimit:8;stroke-dasharray:none;stroke-opacity:1"
             d="M 0,0 H 531769 V 405025 H 0 Z" /></g><g
           transform="matrix(0.24,0,0,0.24,366.4693,-316.2)"
           id="g384"><text
             id="text388"
             style="font-variant:normal;font-weight:300;font-size:37.5px;font-family:HelveticaNeue;-inkscape-font-specification:HelveticaNeue-Light;writing-mode:lr-tb;fill:#000000;fill-opacity:1;fill-rule:nonzero;stroke:none"
             transform="matrix(1,0,0,-1,0,2362)"><tspan
               id="tspan386"
               y="0"
               x="0 22.395 33.314999 52.5975">Etc.</tspan></text>
</g><g
           transform="matrix(7.874016e-5,0,0,7.874016e-5,341.5,192.75)"
           id="g390"><path
             id="path392"
             style="fill:none;stroke:#7f7f7f;stroke-width:19050;stroke-linecap:butt;stroke-linejoin:miter;stroke-miterlimit:8;stroke-dasharray:none;stroke-opacity:1"
             d="M 0,0 682625,577847" /></g><g
           transform="matrix(7.874016e-5,0,0,-7.874016e-5,2.673701,238.3526)"
           id="g394"><path
             id="path396"
             style="fill:none;stroke:#7f7f7f;stroke-width:19050;stroke-linecap:butt;stroke-linejoin:miter;stroke-miterlimit:8;stroke-dasharray:none;stroke-opacity:1"
             d="M 0,0 3149029,573627" /></g><path
           id="path398"
           style="fill:#7f7f7f;fill-opacity:1;fill-rule:nonzero;stroke:none"
           d="m 88.26307,382.689 9.3818,13.309 v -7.9636 h 28.32533 v 7.9636 l 9.3818,-13.309 -9.3818,-13.3091 v 7.9637 H 97.64487 v -7.9637 z" /><path
           id="path400"
           style="fill:#7f7f7f;fill-opacity:1;fill-rule:nonzero;stroke:none"
           d="m 106.5835,302.3401 h 9.0529 v 153.8447 h -9.0529 z" /></g></g></g></svg>